<mxfile host="Electron" agent="Mozilla/5.0 (Windows NT 10.0; Win64; x64) AppleWebKit/537.36 (KHTML, like Gecko) draw.io/26.0.15 Chrome/132.0.6834.196 Electron/34.2.0 Safari/537.36" version="26.0.15">
  <diagram id="process-3-laboratory" name="Laboratory Testing Process">
    <mxGraphModel dx="1050" dy="669" grid="1" gridSize="10" guides="1" tooltips="1" connect="1" arrows="1" fold="1" page="1" pageScale="1" pageWidth="827" pageHeight="1169" math="0" shadow="0">
      <root>
        <mxCell id="0" />
        <mxCell id="1" parent="0" />
        <mxCell id="2" value="Врач" style="html=1;dashed=0;whitespace=wrap;shape=mxgraph.dfd.externalEntity;fontSize=14;" parent="1" vertex="1">
          <mxGeometry x="80" y="200" width="100" height="100" as="geometry" />
        </mxCell>
        <mxCell id="3" value="Сотрудник ресепшена" style="html=1;dashed=0;whitespace=wrap;shape=mxgraph.dfd.externalEntity;fontSize=14;" parent="1" vertex="1">
          <mxGeometry x="320" y="200" width="100" height="100" as="geometry" />
        </mxCell>
        <mxCell id="4" value="Лаборатория" style="html=1;dashed=0;whitespace=wrap;shape=mxgraph.dfd.externalEntity;fontSize=14;" parent="1" vertex="1">
          <mxGeometry x="640" y="200" width="100" height="100" as="geometry" />
        </mxCell>
        <mxCell id="5" value="3.1&#xa;Заказ&#xa;лабораторных&#xa;тестов" style="shape=ellipse;html=1;dashed=0;whitespace=wrap;perimeter=ellipsePerimeter;fontSize=14;" parent="1" vertex="1">
          <mxGeometry x="60" y="390" width="100" height="100" as="geometry" />
        </mxCell>
        <mxCell id="6" value="3.2&#xa;Регистрация&#xa;заказа&#xa;анализов" style="shape=ellipse;html=1;dashed=0;whitespace=wrap;perimeter=ellipsePerimeter;fontSize=14;" parent="1" vertex="1">
          <mxGeometry x="280" y="330" width="100" height="100" as="geometry" />
        </mxCell>
        <mxCell id="7" value="3.3&#xa;Проведение&#xa;анализов" style="shape=ellipse;html=1;dashed=0;whitespace=wrap;perimeter=ellipsePerimeter;fontSize=14;" parent="1" vertex="1">
          <mxGeometry x="640" y="380" width="100" height="100" as="geometry" />
        </mxCell>
        <mxCell id="8" value="3.4&#xa;Запись&#xa;результатов" style="shape=ellipse;html=1;dashed=0;whitespace=wrap;perimeter=ellipsePerimeter;fontSize=14;" parent="1" vertex="1">
          <mxGeometry x="320" y="560" width="100" height="100" as="geometry" />
        </mxCell>
        <mxCell id="9" value="Excel-реестр лаборатории" style="html=1;dashed=0;whitespace=wrap;shape=mxgraph.dfd.dataStoreID;align=left;spacingLeft=30;fontSize=14;" parent="1" vertex="1">
          <mxGeometry x="390" y="480" width="160" height="60" as="geometry" />
        </mxCell>
        <mxCell id="10" value="Система лаборатории" style="html=1;dashed=0;whitespace=wrap;shape=mxgraph.dfd.dataStoreID;align=left;spacingLeft=30;fontSize=14;" parent="1" vertex="1">
          <mxGeometry x="610" y="560" width="160" height="60" as="geometry" />
        </mxCell>
        <mxCell id="11" value="Папка пациента" style="html=1;dashed=0;whitespace=wrap;shape=mxgraph.dfd.dataStoreID;align=left;spacingLeft=30;fontSize=14;" parent="1" vertex="1">
          <mxGeometry x="290" y="700" width="160" height="60" as="geometry" />
        </mxCell>
        <mxCell id="12" value="Назначение анализов" style="html=1;verticalAlign=bottom;endArrow=block;entryX=0.5;entryY=0;exitX=0.5;exitY=1;" parent="1" source="2" target="5" edge="1">
          <mxGeometry width="80" relative="1" as="geometry">
            <mxPoint x="80" y="330" as="sourcePoint" />
            <mxPoint x="160" y="330" as="targetPoint" />
          </mxGeometry>
        </mxCell>
        <mxCell id="13" value="Направление (MED-M)" style="html=1;verticalAlign=bottom;endArrow=block;entryX=0;entryY=0.5;exitX=1;exitY=0.5;" parent="1" source="5" target="6" edge="1">
          <mxGeometry width="80" relative="1" as="geometry">
            <mxPoint x="210" y="430" as="sourcePoint" />
            <mxPoint x="290" y="430" as="targetPoint" />
          </mxGeometry>
        </mxCell>
        <mxCell id="14" value="Запись в реестр (PII-H + MED-H)" style="html=1;verticalAlign=bottom;endArrow=block;entryX=0;entryY=0.5;exitX=1;exitY=0.5;" parent="1" source="6" target="9" edge="1">
          <mxGeometry width="80" relative="1" as="geometry">
            <mxPoint x="430" y="430" as="sourcePoint" />
            <mxPoint x="510" y="430" as="targetPoint" />
          </mxGeometry>
        </mxCell>
        <mxCell id="15" value="Получение заказа на анализ" style="html=1;verticalAlign=bottom;endArrow=block;entryX=0.5;entryY=0;exitX=0.5;exitY=1;" parent="1" source="4" target="7" edge="1">
          <mxGeometry width="80" relative="1" as="geometry">
            <mxPoint x="590" y="330" as="sourcePoint" />
            <mxPoint x="670" y="330" as="targetPoint" />
          </mxGeometry>
        </mxCell>
        <mxCell id="16" value="Доступ к данным" style="html=1;verticalAlign=bottom;endArrow=block;entryX=1;entryY=0.5;exitX=0;exitY=0.5;" parent="1" source="7" target="9" edge="1">
          <mxGeometry width="80" relative="1" as="geometry">
            <mxPoint x="580" y="430" as="sourcePoint" />
            <mxPoint x="660" y="430" as="targetPoint" />
          </mxGeometry>
        </mxCell>
        <mxCell id="17" value="Сохранение результатов анализа" style="html=1;verticalAlign=bottom;endArrow=block;entryX=0.5;entryY=0;exitX=0.5;exitY=1;" parent="1" source="7" target="10" edge="1">
          <mxGeometry width="80" relative="1" as="geometry">
            <mxPoint x="590" y="510" as="sourcePoint" />
            <mxPoint x="670" y="510" as="targetPoint" />
          </mxGeometry>
        </mxCell>
        <mxCell id="18" value="Передача результатов (MED-H)" style="html=1;verticalAlign=bottom;endArrow=block;entryX=1;entryY=0.5;exitX=0;exitY=0.5;" parent="1" source="10" target="8" edge="1">
          <mxGeometry width="80" relative="1" as="geometry">
            <mxPoint x="500" y="610" as="sourcePoint" />
            <mxPoint x="580" y="610" as="targetPoint" />
          </mxGeometry>
        </mxCell>
        <mxCell id="19" value="Сохранение результатов" style="html=1;verticalAlign=bottom;endArrow=block;entryX=0.5;entryY=0;exitX=0.5;exitY=1;" parent="1" source="8" target="11" edge="1">
          <mxGeometry width="80" relative="1" as="geometry">
            <mxPoint x="320" y="680" as="sourcePoint" />
            <mxPoint x="400" y="680" as="targetPoint" />
          </mxGeometry>
        </mxCell>
      </root>
    </mxGraphModel>
  </diagram>
</mxfile>
